<svg width="33" height="33" viewBox="0 0 33 33" fill="none" xmlns="http://www.w3.org/2000/svg">
<path d="M21.8674 4.46519C23.4156 4.46982 24.8991 5.08689 25.9938 6.18164C27.0886 7.27639 27.7057 8.75987 27.7103 10.3081V21.9926C27.7057 23.5408 27.0886 25.0243 25.9938 26.119C24.8991 27.2138 23.4156 27.8308 21.8674 27.8355H10.1829C8.63468 27.8308 7.15121 27.2138 6.05646 26.119C4.96171 25.0243 4.34463 23.5408 4.34001 21.9926V10.3081C4.34463 8.75987 4.96171 7.27639 6.05646 6.18164C7.15121 5.08689 8.63468 4.46982 10.1829 4.46519H21.8674ZM21.8674 2.12842H10.1829C5.68399 2.12842 2.00323 5.80917 2.00323 10.3081V21.9926C2.00323 26.4915 5.68399 30.1722 10.1829 30.1722H21.8674C26.3663 30.1722 30.0471 26.4915 30.0471 21.9926V10.3081C30.0471 5.80917 26.3663 2.12842 21.8674 2.12842Z" fill="white"/>
<path d="M23.6202 10.3081C23.2735 10.3081 22.9346 10.2053 22.6464 10.0127C22.3582 9.82011 22.1335 9.54637 22.0009 9.2261C21.8682 8.90582 21.8335 8.55341 21.9011 8.21341C21.9687 7.87341 22.1357 7.5611 22.3808 7.31598C22.6259 7.07085 22.9382 6.90392 23.2782 6.83629C23.6182 6.76866 23.9706 6.80337 24.2909 6.93603C24.6112 7.06869 24.8849 7.29335 25.0775 7.58158C25.2701 7.86982 25.3729 8.20869 25.3729 8.55535C25.3734 8.78566 25.3284 9.01381 25.2405 9.22668C25.1526 9.43956 25.0235 9.63297 24.8606 9.79583C24.6978 9.95868 24.5044 10.0878 24.2915 10.1757C24.0786 10.2636 23.8505 10.3086 23.6202 10.3081ZM16.0252 11.4762C16.9496 11.4762 17.8533 11.7503 18.622 12.2639C19.3907 12.7775 19.9898 13.5075 20.3436 14.3616C20.6973 15.2157 20.7899 16.1555 20.6095 17.0622C20.4292 17.9689 19.984 18.8018 19.3303 19.4555C18.6766 20.1092 17.8438 20.5544 16.9371 20.7347C16.0304 20.9151 15.0905 20.8225 14.2364 20.4687C13.3824 20.1149 12.6523 19.5158 12.1387 18.7472C11.6251 17.9785 11.351 17.0748 11.351 16.1503C11.3523 14.9111 11.8452 13.723 12.7215 12.8467C13.5978 11.9704 14.7859 11.4775 16.0252 11.4762ZM16.0252 9.13939C14.6385 9.13939 13.283 9.55057 12.1301 10.3209C10.9772 11.0913 10.0785 12.1863 9.5479 13.4674C9.01726 14.7485 8.87842 16.1581 9.14894 17.5181C9.41946 18.8781 10.0872 20.1273 11.0677 21.1078C12.0482 22.0883 13.2974 22.7561 14.6574 23.0266C16.0174 23.2971 17.4271 23.1583 18.7082 22.6276C19.9892 22.097 21.0842 21.1984 21.8546 20.0454C22.6249 18.8925 23.0361 17.537 23.0361 16.1503C23.0361 14.2909 22.2975 12.5077 20.9827 11.1929C19.6679 9.87804 17.8846 9.13939 16.0252 9.13939Z" fill="white"/>
</svg>
