<svg width="73" height="74" viewBox="0 0 73 74" fill="none" xmlns="http://www.w3.org/2000/svg">
<circle cx="36.5" cy="37" r="36.5" fill="#00A884"/>
<path d="M49.5094 23.3095C45.9669 19.7586 41.2492 17.8055 36.2355 17.8055C25.887 17.8055 17.4661 26.2264 17.4661 36.575C17.4661 39.8807 18.3285 43.1104 19.9687 45.9597L17.3055 55.6826L27.2567 53.0701C29.996 54.5665 33.0819 55.3528 36.2271 55.3528H36.2355C46.5756 55.3528 55.1825 46.932 55.1825 36.5834C55.1825 31.5698 53.0519 26.8605 49.5094 23.3095ZM36.2355 52.1908C33.4286 52.1908 30.6808 51.4383 28.2881 50.0179L27.7217 49.6797L21.8203 51.2269L23.3929 45.4693L23.0209 44.8775C21.4567 42.3918 20.6366 39.5256 20.6366 36.575C20.6366 27.9765 27.6371 20.9761 36.244 20.9761C40.4122 20.9761 44.3267 22.5994 47.2689 25.55C50.2111 28.5007 52.0204 32.4152 52.012 36.5834C52.012 45.1903 44.834 52.1908 36.2355 52.1908ZM44.7917 40.5064C44.3267 40.2697 42.0185 39.1367 41.5874 38.9845C41.1562 38.8239 40.8433 38.7478 40.5305 39.2213C40.2177 39.6947 39.3215 40.7431 39.0425 41.0644C38.7719 41.3772 38.4929 41.4195 38.0279 41.1828C35.2717 39.8046 33.4624 38.7224 31.6446 35.6027C31.1627 34.7741 32.1266 34.8333 33.0228 33.0409C33.1749 32.7281 33.0988 32.4575 32.9805 32.2208C32.8621 31.9841 31.9236 29.6759 31.5347 28.7375C31.1543 27.8244 30.7653 27.9512 30.4779 27.9343C30.2073 27.9174 29.8945 27.9174 29.5817 27.9174C29.2689 27.9174 28.7616 28.0357 28.3304 28.5007C27.8992 28.9742 26.6902 30.1071 26.6902 32.4152C26.6902 34.7234 28.3727 36.9554 28.6009 37.2682C28.8377 37.5811 31.9067 42.3157 36.616 44.3533C39.592 45.6384 40.7588 45.7483 42.2468 45.5285C43.1515 45.3932 45.02 44.3955 45.4089 43.2964C45.7978 42.1973 45.7978 41.2589 45.6794 41.0644C45.5695 40.853 45.2567 40.7347 44.7917 40.5064Z" fill="white"/>
</svg>
