<svg width="33" height="33" viewBox="0 0 33 33" fill="none" xmlns="http://www.w3.org/2000/svg">
<path d="M31.0485 7.66816C29.9214 8.15789 28.7289 8.48054 27.5086 8.6259C28.791 7.87497 29.7555 6.68197 30.221 5.27066C29.0085 5.97964 27.6842 6.47709 26.3049 6.74171C25.724 6.13296 25.0255 5.64869 24.2516 5.31833C23.4778 4.98796 22.6449 4.8184 21.8035 4.81996C18.3969 4.81996 15.6401 7.5367 15.6401 10.8857C15.6377 11.3515 15.691 11.816 15.7991 12.2691C13.3563 12.1546 10.9644 11.5314 8.77622 10.4395C6.58809 9.34761 4.65197 7.81098 3.09173 5.92794C2.54436 6.8507 2.25488 7.90355 2.25354 8.97645C2.25354 11.0797 3.35088 12.9389 5.00785 14.0281C4.02614 14.0048 3.06455 13.745 2.20472 13.2707V13.3458C2.20472 16.2879 4.33304 18.7355 7.14994 19.2926C6.62023 19.4338 6.07437 19.5053 5.52616 19.5054C5.13716 19.5061 4.74905 19.4683 4.36747 19.3927C5.15057 21.8027 7.42976 23.5555 10.1296 23.6056C7.93578 25.2963 5.24235 26.2101 2.47264 26.2034C1.981 26.2026 1.48983 26.1734 1.00159 26.1157C3.81923 27.9149 7.09451 28.8666 10.4376 28.8575C21.7903 28.8575 27.9925 19.6118 27.9925 11.593C27.9925 11.3301 27.9856 11.0672 27.9731 10.8106C29.1769 9.95427 30.2184 8.89014 31.0485 7.66816Z" fill="white"/>
</svg>
